<svg width="155" height="77" viewBox="0 0 155 77" fill="none" xmlns="http://www.w3.org/2000/svg">
<path d="M1.07869 30.3963C0.832912 30.3963 0.655406 30.3008 0.532517 30.1097C0.491554 30.0619 0.4779 29.9663 0.4779 29.8469V25.6547C0.4779 25.4995 0.546172 25.3561 0.66906 25.2367C0.805603 25.1173 0.969455 25.0576 1.16061 25.0576H16.3032C16.6173 25.0576 16.863 24.9978 17.0269 24.8784C17.1907 24.759 17.2727 24.6037 17.2727 24.4007C17.2727 24.2096 17.1908 24.0424 17.0132 23.911C16.8494 23.7796 16.6036 23.7199 16.3032 23.7199L7.18216 23.6721C5.885 23.6602 4.68342 23.4332 3.60473 22.9913C2.51239 22.5494 1.63851 21.8925 0.983109 20.9968C0.327703 20.101 0 19.0261 0 17.772C0 15.8252 0.682714 14.392 2.03449 13.4604C3.39992 12.5288 5.1067 12.063 7.19581 12.063H23.7175C23.8404 12.063 23.936 12.1108 24.0179 12.1944C24.0998 12.278 24.1408 12.3855 24.1408 12.5049V17.0673C24.1408 17.1868 24.0998 17.2943 24.0179 17.3779C23.936 17.4615 23.8404 17.5092 23.7175 17.5092H8.34277C8.02872 17.5092 7.78294 17.569 7.61909 17.6884C7.45524 17.8078 7.37332 17.9631 7.37332 18.1661C7.37332 18.3572 7.45524 18.5244 7.63275 18.6558C7.7966 18.7872 8.04238 18.8469 8.34277 18.8469L17.8735 18.8708C19.867 18.8708 21.5055 19.3605 22.7617 20.3518C24.0179 21.3431 24.646 22.7763 24.646 24.6634C24.646 25.7503 24.3456 26.7297 23.7585 27.6015C23.1713 28.4734 22.3657 29.1661 21.328 29.6558C20.3039 30.1574 19.1433 30.4083 17.8598 30.4083H1.07869V30.3963Z" fill="#0527C1"/>
<path d="M31.3909 30.3963C30.3258 30.3963 29.3564 30.1574 28.4552 29.6797C27.554 29.2019 26.844 28.557 26.3115 27.7329C25.779 26.9207 25.5195 26.0249 25.5195 25.0456V12.4093C25.5195 12.3018 25.5605 12.2182 25.6424 12.1466C25.7243 12.0749 25.8199 12.0391 25.9428 12.0391H32.2374C32.333 12.0391 32.4286 12.0749 32.5242 12.1466C32.6198 12.2182 32.6607 12.3018 32.6607 12.4093V23.2421C32.6607 23.5168 32.7563 23.7557 32.9611 23.9468C33.1659 24.1379 33.3981 24.2334 33.6848 24.2334H41.9866C42.2597 24.2334 42.5055 24.1379 42.7103 23.9468C42.9151 23.7557 43.0107 23.5168 43.0107 23.2421V12.4093C43.0107 12.3018 43.0516 12.2182 43.1472 12.1466C43.2428 12.0749 43.3384 12.0391 43.434 12.0391H49.7013C49.8242 12.0391 49.9197 12.0749 50.0017 12.1466C50.0836 12.2182 50.1246 12.3018 50.1246 12.4093V25.0575C50.1246 26.0369 49.8651 26.9327 49.3326 27.7448C48.8001 28.557 48.0901 29.2019 47.1889 29.6916C46.2877 30.1694 45.3046 30.4082 44.2259 30.4082H31.3909V30.3963Z" fill="#0527C1"/>
<path d="M51.4903 30.3966C51.3538 30.3966 51.2309 30.3488 51.1353 30.2652C51.0397 30.1816 50.9851 30.0741 50.9851 29.9547V12.5171C50.9851 12.3977 51.0397 12.2902 51.1353 12.2066C51.2309 12.123 51.3538 12.0752 51.4903 12.0752H68.0393C69.3228 12.0752 70.4971 12.3141 71.5894 12.7918C72.6818 13.2695 73.5556 13.9862 74.2111 14.9297C74.8665 15.8732 75.1942 17.0079 75.1942 18.3336C75.1942 19.5399 74.8528 20.6387 74.1701 21.6181C73.4874 22.5975 72.5862 23.3499 71.4665 23.8754C72.791 26.2044 73.8697 28.2587 74.7299 30.0383L74.7572 30.1219C74.7572 30.1935 74.7299 30.2533 74.6616 30.301C74.607 30.3488 74.5251 30.3846 74.4568 30.3846H67.5068C67.302 30.3846 67.1791 30.313 67.1108 30.1697L64.2025 24.9026C64.1478 24.7592 64.0113 24.6876 63.8065 24.6876H58.5632C58.3857 24.6876 58.2492 24.7712 58.14 24.9264C58.099 24.9623 58.0853 25.0339 58.0853 25.1414V29.9666C58.0853 30.0383 58.0717 30.1099 58.0307 30.1816C57.9488 30.3369 57.7986 30.4205 57.5801 30.4205H51.4903V30.3966ZM66.8924 19.1935C67.1927 19.1935 67.4249 19.1338 67.6024 19.0024C67.7662 18.8711 67.8618 18.7039 67.8618 18.4889C67.8618 18.2978 67.7799 18.1306 67.616 17.9992C67.4522 17.8678 67.2201 17.8081 66.8924 17.8081H58.7407C58.6588 17.8081 58.5769 17.832 58.4677 17.8917C58.413 17.9395 58.3721 18.0111 58.3721 18.0709V18.9666C58.3721 19.0383 58.3994 19.098 58.4677 19.1458C58.5496 19.1935 58.6315 19.2294 58.7407 19.2294L66.8924 19.1935Z" fill="#0527C1"/>
<path d="M76.2184 30.3963C76.0955 30.3963 75.9999 30.3605 75.9044 30.2888C75.8088 30.2171 75.7678 30.1335 75.7678 30.026V12.4571C75.7678 12.3377 75.8088 12.2302 75.8907 12.1585C75.9726 12.0749 76.0682 12.0391 76.1911 12.0391H97.7512C97.8741 12.0391 97.9697 12.0749 98.0516 12.1585C98.1335 12.2421 98.1745 12.3377 98.1745 12.4571V17.3062C98.1745 17.4256 98.1335 17.5331 98.0516 17.6048C97.9697 17.6884 97.8741 17.7242 97.7512 17.7242H83.264C83.1411 17.7242 83.0456 17.76 82.9636 17.8317C82.8817 17.9033 82.8407 17.9869 82.8407 18.0944V18.7991C82.8407 18.9066 82.8817 18.9902 82.9636 19.0619C83.0456 19.1335 83.1411 19.1694 83.264 19.1694H97.7512C97.8741 19.1694 97.9697 19.2052 98.0516 19.2888C98.1335 19.3724 98.1745 19.456 98.1745 19.5635V24.2812C98.1745 24.3887 98.1335 24.4723 98.0516 24.5559C97.9697 24.6395 97.8741 24.6753 97.7512 24.6753H83.264C83.1411 24.6753 83.0456 24.7112 82.9636 24.7828C82.8817 24.8545 82.8407 24.9381 82.8407 25.0456V30.026C82.8407 30.1335 82.7998 30.2171 82.7042 30.2888C82.6086 30.3605 82.513 30.3963 82.3902 30.3963H76.2184Z" fill="#0527C1"/>
<path d="M8.62951 51.429C8.49297 51.429 8.38373 51.3932 8.30181 51.3096C8.21988 51.226 8.17892 51.1424 8.17892 51.0349V39.151C8.17892 39.0435 8.13796 38.9599 8.05603 38.8883C7.9741 38.8166 7.87852 38.7808 7.75564 38.7808H0.423283C0.327703 38.7808 0.218469 38.733 0.122889 38.6494C0.0409629 38.5539 0 38.4583 0 38.3747V33.4659C0 33.3823 0.0409629 33.2868 0.122889 33.1793C0.204814 33.1076 0.300394 33.0718 0.423283 33.0718H23.0348C23.1577 33.0718 23.2533 33.1076 23.3352 33.1793C23.4171 33.2868 23.4581 33.3823 23.4581 33.4659V38.3747C23.4581 38.4583 23.4171 38.5539 23.3352 38.6614C23.2396 38.745 23.1304 38.7927 23.0348 38.7927H15.6888C15.5932 38.7927 15.4976 38.8286 15.402 38.9002C15.3065 38.9719 15.2655 39.0555 15.2655 39.163V51.0468C15.2655 51.1543 15.2245 51.2379 15.1426 51.3215C15.0607 51.4051 14.9514 51.4409 14.8149 51.4409H8.62951V51.429Z" fill="#0527C1"/>
<path d="M24.8236 51.4288C24.687 51.4288 24.5641 51.381 24.4686 51.2974C24.373 51.2138 24.3184 51.1063 24.3184 50.9869V33.5493C24.3184 33.4299 24.373 33.3224 24.4686 33.2388C24.5641 33.1552 24.687 33.1074 24.8236 33.1074H41.3726C42.6561 33.1074 43.8303 33.3463 44.9227 33.824C46.015 34.3018 46.8889 35.0184 47.5443 35.9619C48.1997 36.9055 48.5274 38.0401 48.5274 39.3658C48.5274 40.5721 48.1861 41.6709 47.5033 42.6503C46.8206 43.6297 45.9194 44.3821 44.7998 44.9076C46.1243 47.2366 47.2029 49.2909 48.0632 51.0705L48.0905 51.1541C48.0905 51.2258 48.0632 51.2855 47.9949 51.3333C47.9403 51.381 47.8584 51.4169 47.7901 51.4169H40.84C40.6352 51.4169 40.5123 51.3452 40.4441 51.2019L37.5357 45.9348C37.4811 45.7915 37.3446 45.7198 37.1397 45.7198H31.8965C31.719 45.7198 31.5824 45.8034 31.4732 45.9587C31.4322 45.9945 31.4186 46.0662 31.4186 46.1737V50.9988C31.4186 51.0705 31.4049 51.1422 31.364 51.2138C31.282 51.3691 31.1318 51.4527 30.9134 51.4527H24.8236V51.4288ZM40.2393 40.2258C40.5397 40.2258 40.7718 40.1661 40.9493 40.0347C41.1131 39.9033 41.2087 39.7361 41.2087 39.5211C41.2087 39.33 41.1268 39.1628 40.9629 39.0314C40.7991 38.9 40.567 38.8403 40.2393 38.8403H32.0876C32.0057 38.8403 31.9238 38.8642 31.8146 38.9239C31.7599 38.9717 31.719 39.0434 31.719 39.1031V39.9988C31.719 40.0705 31.7463 40.1302 31.8146 40.178C31.8965 40.2258 31.9784 40.2616 32.0876 40.2616L40.2393 40.2258Z" fill="#0527C1"/>
<path d="M49.8382 51.429C49.5925 51.429 49.4149 51.3454 49.2784 51.1901C49.1419 51.0349 49.1009 50.8438 49.1419 50.6407L54.3851 33.5137C54.4261 33.3704 54.508 33.2629 54.6445 33.1912C54.7811 33.1076 54.9176 33.0718 55.0815 33.0718H66.5374C66.7013 33.0718 66.8515 33.1196 66.988 33.2032C67.1246 33.2868 67.2065 33.3943 67.2338 33.5137L72.477 50.6407C72.5317 50.8557 72.4907 51.0349 72.3542 51.1901C72.2176 51.3454 72.0265 51.429 71.7807 51.429H65.7591C65.5953 51.429 65.4587 51.3932 65.3222 51.3096C65.1857 51.226 65.1037 51.1185 65.0628 50.9871L64.6395 49.5658C64.6258 49.4941 64.5712 49.4344 64.4893 49.3867C64.4074 49.3389 64.3254 49.303 64.2162 49.303H57.3754C57.2798 49.303 57.1842 49.3269 57.1023 49.3867C57.0204 49.4344 56.9658 49.5061 56.9521 49.5658C56.9112 49.7211 56.8702 49.8524 56.8292 49.9599C56.7883 50.0674 56.761 50.163 56.7336 50.2466C56.5971 50.7004 56.5152 51.011 56.4879 51.1662C56.4333 51.3454 56.2831 51.429 56.0646 51.429H49.8382ZM62.2773 43.6179C62.4138 43.6179 62.5231 43.5701 62.605 43.4746C62.6869 43.3791 62.7006 43.2596 62.6596 43.1163L61.3761 38.948C61.3625 38.8405 61.2805 38.7927 61.1303 38.7927H60.4749C60.352 38.7927 60.2701 38.8405 60.2291 38.948L58.9456 43.1163V43.2238C58.9456 43.3313 58.9866 43.4149 59.0549 43.4985C59.1231 43.5821 59.2187 43.6179 59.3416 43.6179H62.2773Z" fill="#0527C1"/>
<path d="M73.4874 51.2976C73.4055 51.226 73.3645 51.1304 73.3645 51.011V46.138C73.3645 46.0186 73.4055 45.923 73.4874 45.8514C73.542 45.7678 73.6376 45.72 73.7605 45.72H80.5057C80.6422 45.72 80.7515 45.6842 80.8334 45.6125C80.9153 45.5408 80.9563 45.4572 80.9563 45.3497V39.163C80.9563 39.0555 80.9153 38.9719 80.8334 38.9002C80.7515 38.8286 80.6422 38.7927 80.5057 38.7927H73.7605C73.6376 38.7927 73.5557 38.7569 73.4874 38.6852C73.4055 38.6136 73.3645 38.518 73.3645 38.3986V33.4898C73.3645 33.3704 73.4055 33.2748 73.4874 33.2032C73.542 33.1196 73.6376 33.0718 73.7605 33.0718H95.225C95.3206 33.0718 95.4298 33.1196 95.5254 33.2032C95.6073 33.3106 95.6483 33.4062 95.6483 33.4898V38.3986C95.6483 38.4822 95.6073 38.5777 95.5254 38.6852C95.4435 38.7569 95.3479 38.7927 95.225 38.7927H88.4798C88.3842 38.7927 88.2886 38.8286 88.1931 38.9122C88.0975 38.9958 88.0565 39.0794 88.0565 39.163V45.3497C88.0565 45.4572 88.0975 45.5408 88.1931 45.6125C88.2886 45.6842 88.3842 45.72 88.4798 45.72H95.225C95.3206 45.72 95.4298 45.7678 95.5254 45.8514C95.6073 45.9589 95.6483 46.0544 95.6483 46.138V51.011C95.6483 51.0946 95.6073 51.1901 95.5254 51.2976C95.4298 51.3812 95.3206 51.429 95.225 51.429H73.7605C73.6376 51.429 73.5557 51.3932 73.4874 51.2976Z" fill="#0527C1"/>
<path d="M113.044 45.087C113.057 45.1348 113.112 45.1586 113.18 45.1467C113.248 45.1348 113.289 45.1109 113.289 45.0511V33.4898C113.289 33.3704 113.33 33.2629 113.426 33.1912C113.522 33.1076 113.617 33.0718 113.74 33.0718H119.953C120.076 33.0718 120.171 33.1076 120.267 33.1912C120.362 33.2748 120.403 33.3704 120.403 33.4898V51.0587C120.403 51.1662 120.362 51.2498 120.267 51.3215C120.171 51.3932 120.076 51.429 119.98 51.429L107.951 51.4051C107.732 51.4051 107.596 51.3215 107.527 51.1424L103.923 39.366C103.909 39.2944 103.854 39.2705 103.759 39.2705C103.663 39.2824 103.622 39.3182 103.622 39.3899V51.0349C103.622 51.1424 103.581 51.226 103.499 51.3096C103.417 51.3932 103.308 51.429 103.172 51.429H96.9589C96.836 51.429 96.7404 51.3932 96.6448 51.3096C96.5493 51.226 96.5083 51.1424 96.5083 51.0349V33.442C96.5083 33.3584 96.5493 33.2748 96.6312 33.1912C96.7131 33.1076 96.8087 33.0718 96.9316 33.0718H109.043C109.248 33.0718 109.371 33.1554 109.439 33.3345L113.044 45.087Z" fill="#0527C1"/>
<path d="M79.0034 73.4527C77.9384 73.4527 76.9689 73.2138 76.0678 72.736C75.1666 72.2583 74.4566 71.6134 73.924 70.7893C73.3915 69.9771 73.1321 69.0933 73.1321 68.1258V60.4103C73.1321 59.4429 73.3915 58.5591 73.924 57.7469C74.4566 56.9347 75.1666 56.2898 76.0678 55.8001C76.9689 55.3224 77.952 55.0835 79.0034 55.0835H95.1701C95.334 55.0835 95.4705 55.1313 95.5797 55.2268C95.689 55.3224 95.7436 55.4418 95.7436 55.5851V60.3267C95.7436 60.47 95.689 60.5895 95.5797 60.685C95.4705 60.7806 95.334 60.8283 95.1701 60.8283H80.8058C80.6419 60.8283 80.5054 60.8761 80.3962 60.9717C80.2869 61.0672 80.2323 61.1866 80.2323 61.33V67.0748C80.2323 67.2181 80.2869 67.3376 80.3962 67.4331C80.5054 67.5287 80.6419 67.5764 80.8058 67.5764H95.1701C95.334 67.5764 95.4705 67.6242 95.5797 67.7198C95.689 67.8153 95.7436 67.9347 95.7436 68.0781V72.951C95.7436 73.0944 95.689 73.2138 95.5797 73.3093C95.4705 73.4049 95.334 73.4527 95.1701 73.4527H79.0034Z" fill="#0527C1"/>
<path d="M102.489 73.4529C101.423 73.4529 100.454 73.2141 99.5529 72.7363C98.6517 72.2586 97.9417 71.6136 97.4091 70.7895C96.8766 69.9774 96.6172 69.0935 96.6172 68.1261V60.4464C96.6172 59.467 96.8766 58.5713 97.4091 57.7591C97.9417 56.947 98.6517 56.302 99.5529 55.8123C100.454 55.3346 101.437 55.0957 102.489 55.0957H115.296C116.375 55.0957 117.372 55.3346 118.259 55.8123C119.16 56.2901 119.87 56.935 120.389 57.7591C120.908 58.5713 121.168 59.467 121.168 60.4464V68.1261C121.168 69.0935 120.908 69.9774 120.389 70.7895C119.87 71.6017 119.16 72.2466 118.259 72.7363C117.358 73.2141 116.375 73.4529 115.296 73.4529H102.489ZM113.071 67.2901C113.344 67.2901 113.589 67.1945 113.794 67.0154C113.999 66.8362 114.095 66.5973 114.095 66.3226V62.1543C114.095 61.8796 113.999 61.6408 113.794 61.4497C113.589 61.2586 113.357 61.163 113.071 61.163H104.769C104.482 61.163 104.25 61.2586 104.031 61.4497C103.827 61.6408 103.717 61.8796 103.717 62.1543V66.3226C103.717 66.5973 103.827 66.8362 104.031 67.0154C104.236 67.1945 104.482 67.2901 104.769 67.2901H113.071Z" fill="#0527C1"/>
<path d="M102.271 15.443C103.09 16.8882 104.128 18.2258 105.316 19.4202C106.504 20.6145 107.883 21.6417 109.426 22.3464C110.19 22.6927 111.009 22.9555 111.842 23.1107C112.675 23.278 113.522 23.3257 114.355 23.278C116.034 23.1824 117.673 22.7047 119.202 22.0119C119.967 21.6656 120.704 21.2595 121.414 20.8176C121.769 20.5907 122.124 20.3757 122.465 20.1249C122.82 19.8979 123.148 19.6352 123.49 19.3963C124.828 18.393 126.084 17.2823 127.285 16.1118C129.675 13.7828 131.819 11.2269 133.839 8.59935L140.503 0L136.912 9.9848L136.748 10.4506L136.584 10.9403C136.475 11.2628 136.366 11.5972 136.27 11.9316C136.065 12.5885 135.86 13.2573 135.683 13.9262C135.314 15.2638 135.014 16.6015 134.768 17.9511C134.522 19.3008 134.331 20.6504 134.235 21.9881C134.14 23.3257 134.14 24.6634 134.249 25.9653C134.372 27.2671 134.631 28.5212 135.096 29.6678C135.328 30.241 135.601 30.7785 135.942 31.2801C136.27 31.7698 136.666 32.2237 137.103 32.6178C137.977 33.4061 139.11 33.9435 140.394 34.2541C141.677 34.5765 143.111 34.6601 144.558 34.6124L154.963 34.266L145.405 37.8491L145.241 37.9088L145.063 37.9805L144.681 38.1357C144.435 38.2432 144.176 38.3507 143.93 38.4701C143.425 38.6971 142.933 38.9479 142.442 39.2106C141.95 39.4734 141.472 39.7362 140.994 40.0109C140.516 40.2975 140.052 40.5841 139.602 40.8827C137.786 42.089 136.161 43.4864 134.823 45.051C134.154 45.8393 133.58 46.6634 133.102 47.5353C132.624 48.4072 132.228 49.3149 131.969 50.2465C131.436 52.1216 131.354 54.0923 131.682 56.063C131.764 56.5527 131.887 57.0423 131.996 57.532L132.201 58.2606C132.269 58.4995 132.365 58.7383 132.447 58.9891C132.488 59.1086 132.529 59.228 132.57 59.3474L132.72 59.7058C132.815 59.9446 132.911 60.1835 133.02 60.4224L133.348 61.139C133.457 61.3778 133.58 61.6048 133.703 61.8436C133.935 62.3214 134.208 62.7752 134.468 63.241C134.604 63.468 134.741 63.6949 134.891 63.9218C135.041 64.1488 135.164 64.3757 135.314 64.6026C135.615 65.0445 135.901 65.5103 136.229 65.9403L136.707 66.5972C136.871 66.8122 137.035 67.0271 137.212 67.2541C138.55 68.9859 140.025 70.658 141.581 72.2704C143.138 73.8947 144.777 75.4593 146.456 77C142.619 74.3844 139.001 71.4701 135.86 68.126C135.669 67.911 135.464 67.7079 135.273 67.4929L134.713 66.848C134.331 66.418 133.99 65.9642 133.621 65.5223C133.443 65.3073 133.28 65.0684 133.102 64.8415C132.938 64.6145 132.761 64.3876 132.597 64.1487C132.283 63.671 131.942 63.2172 131.655 62.7275C131.04 61.772 130.521 60.7568 130.057 59.7177C129.593 58.6786 129.211 57.6037 128.951 56.4929C128.692 55.3822 128.528 54.2476 128.514 53.089C128.487 51.9425 128.61 50.7839 128.869 49.6373C129.129 48.5027 129.538 47.38 130.057 46.317C130.59 45.2541 131.231 44.2389 131.982 43.2953C132.72 42.3518 133.553 41.456 134.44 40.6319C135.341 39.8078 136.297 39.0434 137.294 38.3388C138.304 37.6341 139.342 36.9772 140.434 36.38C140.981 36.0814 141.54 35.7948 142.1 35.5201C142.387 35.3887 142.674 35.2573 142.961 35.1259L143.411 34.9349L143.643 34.8393L143.903 34.7438L144.749 37.9805L144.08 38.0043L143.752 38.0163C143.643 38.0163 143.534 38.0163 143.411 38.0163L142.742 38.0043C142.51 37.9924 142.291 37.9805 142.059 37.9685C141.158 37.9088 140.23 37.7894 139.315 37.5624C138.4 37.3355 137.499 37.025 136.639 36.6069C135.778 36.1889 134.986 35.6634 134.29 35.0543C133.594 34.4452 132.993 33.7644 132.515 33.0478C132.023 32.3312 131.655 31.5787 131.354 30.8143C130.754 29.2975 130.467 27.7568 130.33 26.24C130.194 24.7231 130.248 23.2302 130.371 21.7611C130.508 20.2921 130.74 18.835 131.04 17.4017C131.341 15.9685 131.723 14.5592 132.146 13.1498C132.365 12.4452 132.583 11.7524 132.829 11.0597C132.952 10.7134 133.075 10.367 133.211 10.0206L133.416 9.50706L133.635 8.9696L136.707 10.355C134.509 13.0065 132.133 15.5744 129.456 17.9273C129.129 18.2258 128.774 18.5005 128.432 18.7991C128.091 19.0858 127.736 19.3605 127.381 19.6471C127.026 19.9218 126.657 20.1965 126.289 20.4593C125.906 20.722 125.551 20.9848 125.155 21.2356C124.773 21.4864 124.391 21.7372 123.981 21.9642C123.585 22.203 123.175 22.43 122.766 22.6569C121.933 23.0869 121.073 23.5049 120.172 23.8393C119.27 24.1737 118.328 24.4484 117.359 24.6395C116.389 24.8306 115.379 24.9262 114.382 24.9023C113.385 24.8784 112.375 24.747 111.433 24.4723C110.491 24.1976 109.589 23.8274 108.77 23.3616C107.951 22.8958 107.214 22.3464 106.545 21.7492C106.203 21.4506 105.903 21.1401 105.589 20.8176C105.288 20.4951 105.015 20.1607 104.742 19.8263C104.21 19.1455 103.745 18.4408 103.322 17.7123C102.926 16.9598 102.557 16.2074 102.271 15.443Z" fill="#0527C1"/>
</svg>
